<?xml version="1.0" encoding="UTF-8" standalone="no"?>
<svg
   xmlns:dc="http://purl.org/dc/elements/1.1/"
   xmlns:cc="http://creativecommons.org/ns#"
   xmlns:rdf="http://www.w3.org/1999/02/22-rdf-syntax-ns#"
   xmlns:svg="http://www.w3.org/2000/svg"
   xmlns="http://www.w3.org/2000/svg"
   xmlns:sodipodi="http://sodipodi.sourceforge.net/DTD/sodipodi-0.dtd"
   xmlns:inkscape="http://www.inkscape.org/namespaces/inkscape"
   version="1.1"
   id="svg2"
   xml:space="preserve"
   width="440.13333"
   height="60.240002"
   viewBox="0 0 440.13333 60.240002"
   sodipodi:docname="Zakladni_dvoubarevna_varianta.eps"><metadata
     id="metadata8"><rdf:RDF><cc:Work
         rdf:about=""><dc:format>image/svg+xml</dc:format><dc:type
           rdf:resource="http://purl.org/dc/dcmitype/StillImage" /></cc:Work></rdf:RDF></metadata><defs
     id="defs6" /><sodipodi:namedview
     pagecolor="#ffffff"
     bordercolor="#666666"
     borderopacity="1"
     objecttolerance="10"
     gridtolerance="10"
     guidetolerance="10"
     inkscape:pageopacity="0"
     inkscape:pageshadow="2"
     inkscape:window-width="640"
     inkscape:window-height="480"
     id="namedview4" /><g
     id="g10"
     inkscape:groupmode="layer"
     inkscape:label="ink_ext_XXXXXX"
     transform="matrix(1.3333333,0,0,-1.3333333,0,60.24)"><g
       id="g12"
       transform="scale(0.1)"><path
         d="M 15.3086,451.781 C 6.87891,451.781 0,444.957 0,436.539 7.71094,217.695 180.984,40.8594 398.941,26.418 c 9.543,-0.6367 19.157,-0.2266 28.848,-0.2266 30.988,0 63.168,5.4297 92.262,11.7969 94.133,20.6055 163.851,103.8087 163.851,204.4097 0,6.95 -0.351,13.79 -1.007,20.532 -1.231,12.543 -3.579,24.773 -6.926,36.554 -24.934,87.879 -106.063,152.297 -202.309,152.297 -96.25,0 -177.359,-64.418 -202.316,-152.297 17.242,-60.625 61.195,-110.05 118.418,-134.894 -19.094,20.422 -30.782,47.754 -30.782,77.808 0,63.086 51.34,114.219 114.68,114.219 63.336,0 114.676,-51.133 114.676,-114.219 0,-30.054 -11.695,-57.386 -30.773,-77.808 -20.942,-22.344 -50.782,-36.367 -83.903,-36.367 -93.148,0 -173.324,55.293 -209.234,134.707 -5.293,11.718 -9.629,23.937 -12.903,36.601 -4.703,18.235 -7.222,37.379 -7.222,57.086 0,27.442 4.875,53.754 13.785,78.129 0.406,1.117 0.84,2.219 1.262,3.324 0.168,0.758 0.246,1.535 0.246,2.305 0,6.297 -5.137,11.406 -11.469,11.406 H 15.3516"
         style="fill:#fcc907;fill-opacity:1;fill-rule:evenodd;stroke:none"
         id="path14" /><path
         d="m 787.598,440.266 c 7.164,-26.676 10.98,-54.719 10.98,-83.649 0,-97.847 -43.621,-185.543 -112.547,-244.887 -17.23,-12.98 -31.914,-25.8589 -60.683,-41.0659 52.148,49.0239 77.656,106.5039 77.656,171.7339 0,19.735 -2.496,38.875 -7.211,57.133 4.715,18.235 7.211,37.379 7.211,57.086 0,28.129 -5.098,55.059 -14.441,79.957 -0.418,1.18 -0.625,2.461 -0.625,3.793 0,6.305 5.144,11.414 11.48,11.414 h 73.371 c 7.024,0 13.031,-5.09 14.809,-11.515"
         style="fill:#fcc907;fill-opacity:1;fill-rule:evenodd;stroke:none"
         id="path16" /><path
         d="m 923.031,221.594 c 0,-99.055 58.43,-154.8557 150.039,-154.8557 45.37,0 78.08,12.6367 101.2,29.6484 v 55.3983 h -29.65 c -14.83,-14.414 -33.59,-26.597 -66.3,-26.597 -45.82,0 -69.79,29.636 -69.79,99.433 0,64.555 27.47,95.555 73.7,95.555 27.48,0 45.81,-9.613 57.13,-20.098 h 32.29 v 58.039 c -22.69,13.074 -48.83,21.801 -91.59,21.801 -94.232,0 -157.029,-58.469 -157.029,-158.324 m 211.549,213.367 -40.13,-43.648 h -52.78 l -38.38,43.648 v 16.574 h 42.3 l 24.43,-16.574 23.99,16.574 h 40.57 v -16.574"
         style="fill:#1f357a;fill-opacity:1;fill-rule:nonzero;stroke:none"
         id="path18" /><path
         d="m 1266.68,168.359 c 3.93,-38.816 22.23,-48.847 54.06,-48.847 25.75,0 44.95,7.402 58.46,17.011 h 24.42 V 89.8633 c -20.05,-11.3477 -47.11,-22.6758 -95.07,-22.6758 -79.84,0 -121.28,44.4725 -121.28,116.8675 0,73.718 47.98,119.984 117.35,119.984 71.54,0 108.18,-37.965 108.18,-115.601 0,-9.161 -0.86,-17.45 -0.86,-20.079 z m 0.42,41.016 h 71.53 c -1.29,35.328 -13.09,46.652 -34.01,46.652 -17.87,0 -33.15,-9.148 -37.52,-46.652"
         style="fill:#1f357a;fill-opacity:1;fill-rule:nonzero;stroke:none"
         id="path20" /><path
         d="m 1432.7,85.918 v 51.453 h 26.61 c 9.16,-8.25 28.36,-16.98 53.21,-16.98 20.94,0 34.01,4.797 34.01,16.543 0,12.226 -7.84,16.191 -39.69,20.507 -48.83,6.133 -76.34,23.137 -76.34,71.129 0,50.145 39.28,75.004 96.86,75.004 36.63,0 58,-6.109 77.63,-15.25 v -50.625 h -24.83 c -10.49,7.004 -27.52,13.961 -50.63,13.961 -21.82,0 -30.09,-5.652 -30.09,-16.551 0,-9.621 10.03,-14.41 39.25,-17.882 53.67,-6.543 79.39,-22.676 79.39,-71.582 0,-48.8364 -32.28,-78.0473 -102.49,-78.0473 -40.16,0 -64.15,8.7109 -82.89,18.3203"
         style="fill:#1f357a;fill-opacity:1;fill-rule:nonzero;stroke:none"
         id="path22" /><path
         d="m 1717.67,215.039 71.54,85.504 h 65.44 v -18.797 l -63.27,-71.922 72.01,-120.4099 V 70.6445 h -73.75 l -53.2,89.4455 -18.77,-20.52 V 70.6445 h -78.53 V 375.992 h 49.76 c 24.01,0 28.77,-6.109 28.77,-40.992 V 215.039"
         style="fill:#1f357a;fill-opacity:1;fill-rule:nonzero;stroke:none"
         id="path24" /><path
         d="m 2007.69,92.4805 c -16.13,-17.9102 -37.5,-24.8828 -65.84,-24.8828 -40.57,0 -72.83,23.1054 -72.83,68.4883 0,48.426 37.04,71.531 90.27,71.531 17.46,0 30.98,-1.746 44.06,-4.375 v 15.723 c 0,20.031 -10.46,29.199 -38.82,29.199 -22.68,0 -41.42,-6.508 -54.53,-15.242 h -23.56 v 52.793 c 21.38,9.144 52.35,18.293 93.38,18.293 68.43,0 102.03,-22.684 102.03,-79.367 V 70.6445 h -42.75 c -18.3,0 -27.03,6.543 -31.41,21.836 m -4.34,74.1135 c -7.87,1.355 -17.02,2.215 -25.75,2.215 -20.93,0 -34,-8.289 -34,-27.461 0,-19.649 12.2,-27.95 29.22,-27.95 11.76,0 22.23,5.665 30.53,12.668 z m -46.68,148.754 v 14.414 l 14.39,47.558 h 75.47 v -18.765 l -44.07,-43.207 h -45.79"
         style="fill:#1f357a;fill-opacity:1;fill-rule:nonzero;stroke:none"
         id="path26" /><path
         d="M 2295.83,88.9648 V 0 h -78.52 v 300.543 h 54.57 c 11.78,0 18.74,-4.387 21.85,-24.867 16.94,16.121 39.2,28.332 70.59,28.332 43.63,0 86.87,-28.332 86.87,-112.113 0,-87.676 -48.03,-119.063 -99.04,-119.063 -24.88,0 -42.75,5.6836 -56.32,16.1328 m 0,149.1802 V 132.598 c 8.8,-6.082 18.77,-9.2 31.87,-9.2 24,0 44.07,10.938 44.07,61.524 0,49.316 -19.19,60.613 -42.76,60.613 -9.58,0 -22.66,-3.012 -33.18,-7.39"
         style="fill:#1f357a;fill-opacity:1;fill-rule:nonzero;stroke:none"
         id="path28" /><path
         d="m 2468.52,184.512 c 0,73.703 53.22,119.527 122.61,119.527 68.89,0 122.1,-45.824 122.1,-119.527 0,-73.301 -53.21,-117.3245 -122.1,-117.3245 -69.39,0 -122.61,44.0235 -122.61,117.3245 m 165.35,-0.879 c 0,45.812 -17.47,66.722 -42.74,66.722 -25.76,0 -43.2,-20.91 -43.2,-66.722 0,-45.371 17.44,-65.02 43.2,-65.02 25.27,0 42.74,19.649 42.74,65.02"
         style="fill:#1f357a;fill-opacity:1;fill-rule:nonzero;stroke:none"
         id="path30" /><path
         d="m 2729.75,85.918 v 51.453 h 26.6 c 9.18,-8.25 28.36,-16.98 53.22,-16.98 20.89,0 33.99,4.797 33.99,16.543 0,12.226 -7.8,16.191 -39.68,20.507 -48.87,6.133 -76.31,23.137 -76.31,71.129 0,50.145 39.27,75.004 96.82,75.004 36.66,0 58.01,-6.109 77.65,-15.25 v -50.625 h -24.88 c -10.48,7.004 -27.47,13.961 -50.6,13.961 -21.84,0 -30.06,-5.652 -30.06,-16.551 0,-9.621 9.96,-14.41 39.26,-17.882 53.63,-6.543 79.37,-22.676 79.37,-71.582 0,-48.8364 -32.28,-78.0473 -102.53,-78.0473 -40.12,0 -64.13,8.7109 -82.85,18.3203 m 158.78,274.816 -40.15,-45.386 h -52.81 l -38.36,45.386 v 16.586 h 42.34 l 24.41,-18.343 23.97,18.343 h 40.6 v -16.586"
         style="fill:#1f357a;fill-opacity:1;fill-rule:nonzero;stroke:none"
         id="path32" /><path
         d="m 2925.49,300.543 h 24.89 v 58.434 h 78.51 v -58.434 h 42.77 V 249.91 h -42.77 V 145.254 c 0,-20.527 7.85,-27.07 28.38,-27.07 h 15.24 V 72.832 c -10.45,-3.0468 -25.25,-6.0937 -44.95,-6.0937 -47.09,0 -77.18,16.543 -77.18,66.7187 V 249.91 h -24.89 v 50.633"
         style="fill:#1f357a;fill-opacity:1;fill-rule:nonzero;stroke:none"
         id="path34" /><path
         d="M 3226.92,92.4805 C 3210.74,74.5703 3189.4,67.5977 3161,67.5977 c -40.5,0 -72.81,23.1054 -72.81,68.4883 0,48.426 37.08,71.531 90.3,71.531 17.41,0 30.96,-1.746 44.03,-4.375 v 15.723 c 0,20.031 -10.47,29.199 -38.81,29.199 -22.71,0 -41.44,-6.508 -54.54,-15.242 h -23.53 v 52.793 c 21.37,9.144 52.34,18.293 93.35,18.293 68.49,0 102.05,-22.684 102.05,-79.367 V 70.6445 h -42.71 c -18.35,0 -27.08,6.543 -31.41,21.836 m -4.4,33.5855 v 40.528 c -7.81,1.355 -16.98,2.215 -25.72,2.215 -20.93,0 -34,-8.289 -34,-27.461 0,-19.649 12.2,-27.95 29.2,-27.95 11.8,0 22.26,5.665 30.52,12.668"
         style="fill:#1f357a;fill-opacity:1;fill-rule:nonzero;stroke:none"
         id="path36" /></g></g></svg>
